<svg id="Camada_1" data-name="Camada 1" xmlns="http://www.w3.org/2000/svg" viewBox="0 0 455 151"><defs><style>.cls-1{fill:#fff}</style></defs><path class="cls-1" d="M135.16 98.9c0-.55-.09-1.09-.09-1.63V40.63a19.37 19.37 0 0 1 3.57-12c3.1-4.14 7.61-6 12.55-6.95.91-.18 1.92 0 2.73-.63h11.81c.65.66 1.51.28 2.26.44s1.11.33 1.1 1.22c-.05 5.08 0 10.16 0 15.24 0 .86-.26 1.13-1.12 1.11-1.8-.06-3.61-.06-5.41 0-4.45.13-7 2.73-6.93 7.16 0 1.4-.63 3.25.31 4.05s2.59.24 3.95.24c2.63 0 5.24.06 7.87 0 1.12 0 1.39.34 1.31 1.38-.13 1.9.22 3.84-.21 5.72A10.48 10.48 0 0 1 158 65.87c-1.72 0-2.07.43-2.07 2.13.06 19.38 0 38.78.09 58.16 0 1.75-.52 2.24-2.07 2-1.33-.25-2.79.57-4-.47-2.37-4.47-4.66-9-7-13.44q-4.07-7.63-7.79-15.35zM283.83 67c1.83-11.11 7.89-18.43 18.67-21.19A59.07 59.07 0 0 1 336.38 47c10 3.33 14.79 10.45 14.79 20.93v27.68a40.67 40.67 0 0 1-2 12.88 26.58 26.58 0 0 1-14.54 16.44 52.52 52.52 0 0 1-34.34 3.66c-12.59-2.93-19.76-13.31-19-26.3.7-11.28 6.44-18.52 17-22.2a65.9 65.9 0 0 1 7.24-2c5-1.13 10.17-1.3 15.21-2.26a20.68 20.68 0 0 0 5.79-1.83c2.32-1.2 4.14-2.91 4.05-5.66-.08-2.93-1.94-4.77-4.6-5.79-3.65-1.41-7.45-1.46-11.29-1.23a17.34 17.34 0 0 0-5.44 1 7 7 0 0 0-4.25 3.82c-.19.45-.36.8-1 .8zM331 86.87a.9.9 0 0 0-.88.07 93.69 93.69 0 0 1-16.29 4.75 17 17 0 0 0-8.68 3.94c-3.1 2.91-3.78 6.46-2.7 10.48a8.27 8.27 0 0 0 6.9 6.38 21.71 21.71 0 0 0 6.2.09 16.18 16.18 0 0 0 14.91-13.44c.78-4.14.39-8.25.54-12.27zm86.92-18.01V23.3c0-1.21.2-1.69 1.55-1.63 2.95.12 5.9 0 8.85 0a10.34 10.34 0 0 1 10.44 10.23V44c0 1 .28 1.36 1.34 1.34 3.33-.07 6.67 0 10 0 1 0 1.35.23 1.27 1.26-.12 1.57 0 3.18-.18 4.74a9.82 9.82 0 0 1-10.34 8.9c-1.73 0-2.13.47-2.07 2.15.07 14.15 0 28.3 0 42.45 0 4.85 1.64 6.48 6.48 6.49h5.08c.8 0 1 .26 1 1v13.93c0 .79-.28 1-1 1a107.83 107.83 0 0 1-22.06-.41c-6.48-.84-10.21-5.49-10.34-12.64-.07-5.51 0-11 0-16.54q-.02-14.39-.02-28.81zM215 74.92V23.3c0-1.25.27-1.66 1.59-1.62 3.1.1 6.2 0 9.3 0a10.19 10.19 0 0 1 10 9.52v95.06c0 1.45-.29 1.91-1.83 1.88-5.84-.1-11.69-.08-17.58 0-1.27 0-1.63-.3-1.63-1.61q.15-25.8.15-51.61zm146.18 29.53c0-7.05-.17-14.1 0-21.14.25-8.06 2-15.81 6.51-22.66 5.36-7.89 13-12 22.11-14a71.55 71.55 0 0 1 15.8-1.34c1 0 1.13.39 1.13 1.24v19.17c0 1-.27 1.27-1.27 1.27a73.4 73.4 0 0 0-9.49.24c-8 1-12.81 6.12-13.44 14.22-.1 1.3-.16 2.62-.16 3.93v41.15c0 1.25-.27 1.66-1.6 1.64-6-.08-12-.07-18 0-1.25 0-1.64-.27-1.63-1.59.07-7.38 0-14.75 0-22.13zM181.2 86.69V47.18c0-1.65.48-2 2-1.9 3.28.12 6.55 0 9.83 0 5.47.09 8.61 3.1 9.1 8.5.06.7.06 1.42.06 2.13v70.5c0 1.33-.28 1.74-1.67 1.72-5.9-.08-11.81-.07-17.71 0-1.29 0-1.62-.33-1.62-1.62.03-13.26.01-26.51.01-39.82zm69.46.12v-40c0-1.22.28-1.55 1.51-1.51 3.16.1 6.34 0 9.51 0 6.52 0 9.77 3.16 9.95 9.7v71.34c0 1.38-.24 1.86-1.75 1.83-5.84-.1-11.69-.08-17.58 0-1.34 0-1.72-.28-1.71-1.67.1-13.25.07-26.5.07-39.69zm-58.97-48.76h-9.17c-.91 0-1.36-.1-1.35-1.21.06-4.69 0-9.39 0-14.08 0-.55-.1-1.11.78-1 4.3.14 8.64-.4 12.91.26 4.52.7 6.81 3.36 7.16 8 .19 2.39 0 4.8.1 7.24 0 .93-.47.91-1.13.9-3.07-.16-6.19-.11-9.3-.11zm69.37 0h-9.17c-1 0-1.26-.32-1.25-1.29V22.83c0-.45-.33-1.18.64-1.16 4.26.09 8.54-.37 12.76.21 5 .68 7.36 3.71 7.52 9.09.06 2 0 3.93 0 5.89 0 1-.32 1.19-1.22 1.18-3.05-.04-6.16.01-9.28.01z" id="AZpGHs.tif"/><g id="aMojFO.tif"><path d="M57.48 23.1H79.4a51.23 51.23 0 0 1 5.64.55 26.37 26.37 0 0 1 5.77 1.53 24.69 24.69 0 0 1 9.61 7.08 45.49 45.49 0 0 1 3.74 5.24c1.52 2.48 2.65 5.17 4.14 7.65.53.92 1.1 1.85 1.56 2.77s1 2.07 1.52 3.1c2.07 4.14 4.28 8.32 6.42 12.48 2 3.79 3.9 7.59 5.91 11.37q2 3.69 3.9 7.41c1.46 2.83 2.95 5.67 4.37 8.51 1.72 3.33 3.42 6.64 5.17 10 1.46 2.82 2.92 5.64 4.4 8.47 1.78 3.39 3.64 6.74 5.36 10.16 1.28 2.57 2.72 5 3.89 7.6.14.33.57.53.45 1h-41.1a1 1 0 0 0 0-.28c-1.53-3.1-3-6.2-4.6-9.24s-3.1-6-4.61-9-3.16-6.2-4.74-9.3l-8.06-15.72q-2.24-4.39-4.46-8.83c-1.42-2.82-2.85-5.63-4.22-8.49a33.48 33.48 0 0 1-1.86-3.89c.16-.57-.32-.89-.53-1.32C76 59.89 75 57.89 74 55.81c-1.1-2.31-2.27-4.58-3.45-6.85-.81-1.57-1.76-3.1-2.46-4.67-.82-1.87-1.82-3.62-2.71-5.46-1-2.07-2.14-4.14-3.19-6.25l-4.46-8.78a1.5 1.5 0 0 1-.25-.7z" fill="#e5d3d8"/><path class="cls-1" d="M57.48 23.1a1.5 1.5 0 0 0 .25.77l4.46 8.75c1 2.07 2.18 4.14 3.19 6.25.86 1.82 1.89 3.59 2.71 5.46.7 1.6 1.65 3.1 2.46 4.67 1.17 2.27 2.35 4.55 3.45 6.85 1 2.07 2.07 4.08 3.1 6.14.21.42.69.72.53 1.32-.53-.42-.55.08-.7.36l-4.37 8.6q-3.1 6.14-6.14 12.3c-1.42 2.93-2.88 5.85-4.34 8.73-1 2.07-2.14 4-3.1 6.08-1.23 2.59-2.57 5.17-3.86 7.71s-2.56 5.09-3.86 7.59c-1.1 2.07-2 4.14-3.1 6.2q-1.84 3.53-3.57 7.11H4.21c-.19 0-.64.3-.6-.28.42-.18.59-.6.78-1l3.2-6.31c1.53-3 3.1-6 4.59-9s3-6.2 4.61-9.3c1.46-2.84 2.92-5.7 4.34-8.56 1-1.89 1.93-3.8 2.94-5.69 1.33-2.5 2.57-5.1 3.81-7.62 1-2 2.07-4 3.1-6l2.35-4.57 5-9.87c1.15-2.25 2.27-4.53 3.42-6.78 1.48-2.81 2.93-5.68 4.38-8.58s3.1-6.08 4.61-9.11l4-7.74c.7-1.39 1.35-2.8 2.07-4.19.1-.15.19-.55.67-.29z"/></g></svg>